M48
; DRILL file {KiCad 8.0.7} date 2025-04-14T19:46:15-0600
; FORMAT={-:-/ absolute / inch / decimal}
; #@! TF.CreationDate,2025-04-14T19:46:15-06:00
; #@! TF.GenerationSoftware,Kicad,Pcbnew,8.0.7
; #@! TF.FileFunction,MixedPlating,1,2
FMAT,2
INCH
; #@! TA.AperFunction,Plated,PTH,ViaDrill
T1C0.0197
; #@! TA.AperFunction,Plated,PTH,ComponentDrill
T2C0.0394
; #@! TA.AperFunction,Plated,PTH,ComponentDrill
T3C0.0469
%
G90
G05
T1
X4.0Y-2.5
T2
X0.1Y-2.1
X0.1Y-2.2
X0.2Y-2.1
X0.2Y-2.2
X0.3Y-2.1
X0.3Y-2.2
X0.4Y-2.1
X0.4Y-2.2
X0.5Y-2.1
X0.5Y-2.2
X0.6Y-2.1
X0.6Y-2.2
X0.7Y-2.1
X0.7Y-2.2
X0.8Y-2.1
X0.8Y-2.2
X0.9Y-2.1
X0.9Y-2.2
X1.0Y-2.1
X1.0Y-2.2
X1.0Y-2.5
X1.1Y-2.1
X1.1Y-2.2
X1.1Y-2.5
X1.2Y-2.1
X1.2Y-2.2
X1.2Y-2.5
X1.2Y-2.8
X1.2Y-2.9
X1.3Y-2.1
X1.3Y-2.2
X1.3Y-2.5
X1.3Y-2.8
X1.3Y-2.9
X1.4Y-2.1
X1.4Y-2.2
X1.4Y-2.5
X1.4Y-2.8
X1.4Y-2.9
X1.5Y-0.1
X1.5Y-0.2
X1.5Y-1.8
X1.5Y-1.9
X1.5Y-2.1
X1.5Y-2.2
X1.5Y-2.8
X1.5Y-2.9
X1.6Y-0.1
X1.6Y-0.2
X1.6Y-1.8
X1.6Y-1.9
X1.6Y-2.1
X1.6Y-2.2
X1.7Y-0.1
X1.7Y-0.2
X1.7Y-1.8
X1.7Y-1.9
X1.7Y-2.1
X1.7Y-2.2
X1.8Y-0.1
X1.8Y-0.2
X1.8Y-1.8
X1.8Y-1.9
X1.8Y-2.1
X1.8Y-2.2
X1.9Y-0.1
X1.9Y-0.2
X1.9Y-1.8
X1.9Y-1.9
X1.9Y-2.1
X1.9Y-2.2
X2.0Y-0.1
X2.0Y-0.2
X2.0Y-1.8
X2.0Y-1.9
X2.0Y-2.1
X2.0Y-2.2
X2.1Y-0.1
X2.1Y-0.2
X2.1Y-1.8
X2.1Y-1.9
X2.1Y-2.1
X2.1Y-2.2
X2.2Y-0.1
X2.2Y-0.2
X2.2Y-1.8
X2.2Y-1.9
X2.2Y-2.1
X2.2Y-2.2
X2.2Y-2.3425
X2.2Y-2.5
X2.3Y-0.1
X2.3Y-0.2
X2.3Y-1.8
X2.3Y-1.9
X2.3Y-2.1
X2.3Y-2.2
X2.4Y-0.1
X2.4Y-0.2
X2.4Y-1.8
X2.4Y-1.9
X2.4Y-2.1
X2.4Y-2.2
X2.5Y-2.1
X2.5Y-2.2
X2.6Y-2.1
X2.6Y-2.2
X2.7Y-2.1
X2.7Y-2.2
X2.8Y-2.1
X2.8Y-2.2
X2.9Y-2.1
X2.9Y-2.2
X3.0Y-2.1
X3.0Y-2.2
X3.1Y-2.1
X3.1Y-2.2
X3.2Y-2.1
X3.2Y-2.2
X3.2Y-2.8
X3.2Y-2.9
X3.2236Y-2.3425
X3.2236Y-2.5
X3.3Y-2.1
X3.3Y-2.2
X3.3Y-2.8
X3.3Y-2.9
X3.4Y-1.1
X3.4Y-1.2
X3.4Y-1.3
X3.4Y-1.4
X3.4Y-1.5
X3.4Y-1.6
X3.4Y-1.7
X3.4Y-2.1
X3.4Y-2.2
X3.4Y-2.8
X3.4Y-2.9
X3.5Y-1.1
X3.5Y-1.2
X3.5Y-1.3
X3.5Y-1.4
X3.5Y-1.5
X3.5Y-1.6
X3.5Y-1.7
X3.5Y-2.1
X3.5Y-2.2
X3.5Y-2.8
X3.5Y-2.9
X3.6Y-2.1
X3.6Y-2.2
X3.7Y-2.1
X3.7Y-2.2
X3.8Y-2.1
X3.8Y-2.2
X3.9Y-2.1
X3.9Y-2.2
X4.0Y-0.1
X4.0Y-0.2
X4.0Y-1.8
X4.0Y-1.9
X4.0Y-2.1
X4.0Y-2.2
X4.1Y-0.1
X4.1Y-0.2
X4.1Y-1.8
X4.1Y-1.9
X4.1Y-2.1
X4.1Y-2.2
X4.2Y-0.1
X4.2Y-0.2
X4.2Y-1.8
X4.2Y-1.9
X4.2Y-2.1
X4.2Y-2.2
X4.2Y-2.7
X4.2Y-2.8
X4.2Y-2.9
X4.3Y-0.1
X4.3Y-0.2
X4.3Y-1.8
X4.3Y-1.9
X4.3Y-2.1
X4.3Y-2.2
X4.4Y-0.1
X4.4Y-0.2
X4.4Y-1.8
X4.4Y-1.9
X4.4Y-2.1
X4.4Y-2.2
X4.45Y-2.6
X4.45Y-2.7
X4.45Y-2.8
X4.45Y-2.9
X4.5Y-0.1
X4.5Y-0.2
X4.5Y-1.8
X4.5Y-1.9
X4.5Y-2.1
X4.5Y-2.2
X4.6Y-0.1
X4.6Y-0.2
X4.6Y-1.8
X4.6Y-1.9
X4.6Y-2.1
X4.6Y-2.2
X4.6Y-2.6
X4.6Y-2.7
X4.6Y-2.8
X4.6Y-2.9
X4.7Y-0.1
X4.7Y-0.2
X4.7Y-1.8
X4.7Y-1.9
X4.7Y-2.1
X4.7Y-2.2
X4.75Y-2.6
X4.75Y-2.7
X4.75Y-2.8
X4.75Y-2.9
X4.8Y-0.1
X4.8Y-0.2
X4.8Y-1.8
X4.8Y-1.9
X4.8Y-2.1
X4.8Y-2.2
X4.9Y-0.1
X4.9Y-0.2
X4.9Y-1.8
X4.9Y-1.9
X4.9Y-2.1
X4.9Y-2.2
X4.9Y-2.6
X4.9Y-2.7
X4.9Y-2.8
X4.9Y-2.9
T3
X0.2Y-2.4
X0.2Y-2.5
M30
