%TF.GenerationSoftware,KiCad,Pcbnew,8.0.7*%
%TF.CreationDate,2025-04-14T19:46:08-06:00*%
%TF.ProjectId,shield_r0.2,73686965-6c64-45f7-9230-2e322e6b6963,rev?*%
%TF.SameCoordinates,Original*%
%TF.FileFunction,Legend,Top*%
%TF.FilePolarity,Positive*%
%FSLAX46Y46*%
G04 Gerber Fmt 4.6, Leading zero omitted, Abs format (unit mm)*
G04 Created by KiCad (PCBNEW 8.0.7) date 2025-04-14 19:46:08*
%MOMM*%
%LPD*%
G01*
G04 APERTURE LIST*
%ADD10C,0.150000*%
%ADD11C,0.100000*%
%ADD12C,0.120000*%
G04 APERTURE END LIST*
D10*
X8654819Y-62563333D02*
X9369104Y-62563333D01*
X9369104Y-62563333D02*
X9511961Y-62610952D01*
X9511961Y-62610952D02*
X9607200Y-62706190D01*
X9607200Y-62706190D02*
X9654819Y-62849047D01*
X9654819Y-62849047D02*
X9654819Y-62944285D01*
X9654819Y-61563333D02*
X9654819Y-62134761D01*
X9654819Y-61849047D02*
X8654819Y-61849047D01*
X8654819Y-61849047D02*
X8797676Y-61944285D01*
X8797676Y-61944285D02*
X8892914Y-62039523D01*
X8892914Y-62039523D02*
X8940533Y-62134761D01*
X50855714Y-61414819D02*
X50855714Y-60414819D01*
X50855714Y-60414819D02*
X51236666Y-60414819D01*
X51236666Y-60414819D02*
X51331904Y-60462438D01*
X51331904Y-60462438D02*
X51379523Y-60510057D01*
X51379523Y-60510057D02*
X51427142Y-60605295D01*
X51427142Y-60605295D02*
X51427142Y-60748152D01*
X51427142Y-60748152D02*
X51379523Y-60843390D01*
X51379523Y-60843390D02*
X51331904Y-60891009D01*
X51331904Y-60891009D02*
X51236666Y-60938628D01*
X51236666Y-60938628D02*
X50855714Y-60938628D01*
X51808095Y-61367200D02*
X51950952Y-61414819D01*
X51950952Y-61414819D02*
X52189047Y-61414819D01*
X52189047Y-61414819D02*
X52284285Y-61367200D01*
X52284285Y-61367200D02*
X52331904Y-61319580D01*
X52331904Y-61319580D02*
X52379523Y-61224342D01*
X52379523Y-61224342D02*
X52379523Y-61129104D01*
X52379523Y-61129104D02*
X52331904Y-61033866D01*
X52331904Y-61033866D02*
X52284285Y-60986247D01*
X52284285Y-60986247D02*
X52189047Y-60938628D01*
X52189047Y-60938628D02*
X51998571Y-60891009D01*
X51998571Y-60891009D02*
X51903333Y-60843390D01*
X51903333Y-60843390D02*
X51855714Y-60795771D01*
X51855714Y-60795771D02*
X51808095Y-60700533D01*
X51808095Y-60700533D02*
X51808095Y-60605295D01*
X51808095Y-60605295D02*
X51855714Y-60510057D01*
X51855714Y-60510057D02*
X51903333Y-60462438D01*
X51903333Y-60462438D02*
X51998571Y-60414819D01*
X51998571Y-60414819D02*
X52236666Y-60414819D01*
X52236666Y-60414819D02*
X52379523Y-60462438D01*
X53331904Y-61414819D02*
X52760476Y-61414819D01*
X53046190Y-61414819D02*
X53046190Y-60414819D01*
X53046190Y-60414819D02*
X52950952Y-60557676D01*
X52950952Y-60557676D02*
X52855714Y-60652914D01*
X52855714Y-60652914D02*
X52760476Y-60700533D01*
X104013333Y-66657200D02*
X104156190Y-66704819D01*
X104156190Y-66704819D02*
X104394285Y-66704819D01*
X104394285Y-66704819D02*
X104489523Y-66657200D01*
X104489523Y-66657200D02*
X104537142Y-66609580D01*
X104537142Y-66609580D02*
X104584761Y-66514342D01*
X104584761Y-66514342D02*
X104584761Y-66419104D01*
X104584761Y-66419104D02*
X104537142Y-66323866D01*
X104537142Y-66323866D02*
X104489523Y-66276247D01*
X104489523Y-66276247D02*
X104394285Y-66228628D01*
X104394285Y-66228628D02*
X104203809Y-66181009D01*
X104203809Y-66181009D02*
X104108571Y-66133390D01*
X104108571Y-66133390D02*
X104060952Y-66085771D01*
X104060952Y-66085771D02*
X104013333Y-65990533D01*
X104013333Y-65990533D02*
X104013333Y-65895295D01*
X104013333Y-65895295D02*
X104060952Y-65800057D01*
X104060952Y-65800057D02*
X104108571Y-65752438D01*
X104108571Y-65752438D02*
X104203809Y-65704819D01*
X104203809Y-65704819D02*
X104441904Y-65704819D01*
X104441904Y-65704819D02*
X104584761Y-65752438D01*
X105013333Y-66181009D02*
X105346666Y-66181009D01*
X105489523Y-66704819D02*
X105013333Y-66704819D01*
X105013333Y-66704819D02*
X105013333Y-65704819D01*
X105013333Y-65704819D02*
X105489523Y-65704819D01*
X106489523Y-66704819D02*
X106156190Y-66228628D01*
X105918095Y-66704819D02*
X105918095Y-65704819D01*
X105918095Y-65704819D02*
X106299047Y-65704819D01*
X106299047Y-65704819D02*
X106394285Y-65752438D01*
X106394285Y-65752438D02*
X106441904Y-65800057D01*
X106441904Y-65800057D02*
X106489523Y-65895295D01*
X106489523Y-65895295D02*
X106489523Y-66038152D01*
X106489523Y-66038152D02*
X106441904Y-66133390D01*
X106441904Y-66133390D02*
X106394285Y-66181009D01*
X106394285Y-66181009D02*
X106299047Y-66228628D01*
X106299047Y-66228628D02*
X105918095Y-66228628D01*
X106775238Y-65704819D02*
X107108571Y-66704819D01*
X107108571Y-66704819D02*
X107441904Y-65704819D01*
X107965714Y-65704819D02*
X108156190Y-65704819D01*
X108156190Y-65704819D02*
X108251428Y-65752438D01*
X108251428Y-65752438D02*
X108346666Y-65847676D01*
X108346666Y-65847676D02*
X108394285Y-66038152D01*
X108394285Y-66038152D02*
X108394285Y-66371485D01*
X108394285Y-66371485D02*
X108346666Y-66561961D01*
X108346666Y-66561961D02*
X108251428Y-66657200D01*
X108251428Y-66657200D02*
X108156190Y-66704819D01*
X108156190Y-66704819D02*
X107965714Y-66704819D01*
X107965714Y-66704819D02*
X107870476Y-66657200D01*
X107870476Y-66657200D02*
X107775238Y-66561961D01*
X107775238Y-66561961D02*
X107727619Y-66371485D01*
X107727619Y-66371485D02*
X107727619Y-66038152D01*
X107727619Y-66038152D02*
X107775238Y-65847676D01*
X107775238Y-65847676D02*
X107870476Y-65752438D01*
X107870476Y-65752438D02*
X107965714Y-65704819D01*
X109346666Y-66704819D02*
X108775238Y-66704819D01*
X109060952Y-66704819D02*
X109060952Y-65704819D01*
X109060952Y-65704819D02*
X108965714Y-65847676D01*
X108965714Y-65847676D02*
X108870476Y-65942914D01*
X108870476Y-65942914D02*
X108775238Y-65990533D01*
D11*
X3048095Y-3267419D02*
X3048095Y-4076942D01*
X3048095Y-4076942D02*
X3095714Y-4172180D01*
X3095714Y-4172180D02*
X3143333Y-4219800D01*
X3143333Y-4219800D02*
X3238571Y-4267419D01*
X3238571Y-4267419D02*
X3429047Y-4267419D01*
X3429047Y-4267419D02*
X3524285Y-4219800D01*
X3524285Y-4219800D02*
X3571904Y-4172180D01*
X3571904Y-4172180D02*
X3619523Y-4076942D01*
X3619523Y-4076942D02*
X3619523Y-3267419D01*
X4619523Y-4267419D02*
X4048095Y-4267419D01*
X4333809Y-4267419D02*
X4333809Y-3267419D01*
X4333809Y-3267419D02*
X4238571Y-3410276D01*
X4238571Y-3410276D02*
X4143333Y-3505514D01*
X4143333Y-3505514D02*
X4048095Y-3553133D01*
X53101904Y-50942419D02*
X52625714Y-50942419D01*
X52625714Y-50942419D02*
X52578095Y-51418609D01*
X52578095Y-51418609D02*
X52625714Y-51370990D01*
X52625714Y-51370990D02*
X52720952Y-51323371D01*
X52720952Y-51323371D02*
X52959047Y-51323371D01*
X52959047Y-51323371D02*
X53054285Y-51370990D01*
X53054285Y-51370990D02*
X53101904Y-51418609D01*
X53101904Y-51418609D02*
X53149523Y-51513847D01*
X53149523Y-51513847D02*
X53149523Y-51751942D01*
X53149523Y-51751942D02*
X53101904Y-51847180D01*
X53101904Y-51847180D02*
X53054285Y-51894800D01*
X53054285Y-51894800D02*
X52959047Y-51942419D01*
X52959047Y-51942419D02*
X52720952Y-51942419D01*
X52720952Y-51942419D02*
X52625714Y-51894800D01*
X52625714Y-51894800D02*
X52578095Y-51847180D01*
X53482857Y-50942419D02*
X54149523Y-50942419D01*
X54149523Y-50942419D02*
X53720952Y-51942419D01*
X86820476Y-24857419D02*
X87487142Y-25857419D01*
X87487142Y-24857419D02*
X86820476Y-25857419D01*
X88391904Y-25857419D02*
X87820476Y-25857419D01*
X88106190Y-25857419D02*
X88106190Y-24857419D01*
X88106190Y-24857419D02*
X88010952Y-25000276D01*
X88010952Y-25000276D02*
X87915714Y-25095514D01*
X87915714Y-25095514D02*
X87820476Y-25143133D01*
X124745714Y-51942419D02*
X124174286Y-51942419D01*
X124460000Y-51942419D02*
X124460000Y-50942419D01*
X124460000Y-50942419D02*
X124364762Y-51085276D01*
X124364762Y-51085276D02*
X124269524Y-51180514D01*
X124269524Y-51180514D02*
X124174286Y-51228133D01*
X37290476Y-42637419D02*
X37957142Y-43637419D01*
X37957142Y-42637419D02*
X37290476Y-43637419D01*
X38242857Y-42637419D02*
X38909523Y-42637419D01*
X38909523Y-42637419D02*
X38480952Y-43637419D01*
X34750476Y-50942419D02*
X35417142Y-50942419D01*
X35417142Y-50942419D02*
X34988571Y-51942419D01*
X36321904Y-51942419D02*
X35750476Y-51942419D01*
X36036190Y-51942419D02*
X36036190Y-50942419D01*
X36036190Y-50942419D02*
X35940952Y-51085276D01*
X35940952Y-51085276D02*
X35845714Y-51180514D01*
X35845714Y-51180514D02*
X35750476Y-51228133D01*
X100790476Y-42637419D02*
X101457142Y-43637419D01*
X101457142Y-42637419D02*
X100790476Y-43637419D01*
X101885714Y-43637419D02*
X102076190Y-43637419D01*
X102076190Y-43637419D02*
X102171428Y-43589800D01*
X102171428Y-43589800D02*
X102219047Y-43542180D01*
X102219047Y-43542180D02*
X102314285Y-43399323D01*
X102314285Y-43399323D02*
X102361904Y-43208847D01*
X102361904Y-43208847D02*
X102361904Y-42827895D01*
X102361904Y-42827895D02*
X102314285Y-42732657D01*
X102314285Y-42732657D02*
X102266666Y-42685038D01*
X102266666Y-42685038D02*
X102171428Y-42637419D01*
X102171428Y-42637419D02*
X101980952Y-42637419D01*
X101980952Y-42637419D02*
X101885714Y-42685038D01*
X101885714Y-42685038D02*
X101838095Y-42732657D01*
X101838095Y-42732657D02*
X101790476Y-42827895D01*
X101790476Y-42827895D02*
X101790476Y-43065990D01*
X101790476Y-43065990D02*
X101838095Y-43161228D01*
X101838095Y-43161228D02*
X101885714Y-43208847D01*
X101885714Y-43208847D02*
X101980952Y-43256466D01*
X101980952Y-43256466D02*
X102171428Y-43256466D01*
X102171428Y-43256466D02*
X102266666Y-43208847D01*
X102266666Y-43208847D02*
X102314285Y-43161228D01*
X102314285Y-43161228D02*
X102361904Y-43065990D01*
X100790476Y-7077419D02*
X101457142Y-8077419D01*
X101457142Y-7077419D02*
X100790476Y-8077419D01*
X101980952Y-7505990D02*
X101885714Y-7458371D01*
X101885714Y-7458371D02*
X101838095Y-7410752D01*
X101838095Y-7410752D02*
X101790476Y-7315514D01*
X101790476Y-7315514D02*
X101790476Y-7267895D01*
X101790476Y-7267895D02*
X101838095Y-7172657D01*
X101838095Y-7172657D02*
X101885714Y-7125038D01*
X101885714Y-7125038D02*
X101980952Y-7077419D01*
X101980952Y-7077419D02*
X102171428Y-7077419D01*
X102171428Y-7077419D02*
X102266666Y-7125038D01*
X102266666Y-7125038D02*
X102314285Y-7172657D01*
X102314285Y-7172657D02*
X102361904Y-7267895D01*
X102361904Y-7267895D02*
X102361904Y-7315514D01*
X102361904Y-7315514D02*
X102314285Y-7410752D01*
X102314285Y-7410752D02*
X102266666Y-7458371D01*
X102266666Y-7458371D02*
X102171428Y-7505990D01*
X102171428Y-7505990D02*
X101980952Y-7505990D01*
X101980952Y-7505990D02*
X101885714Y-7553609D01*
X101885714Y-7553609D02*
X101838095Y-7601228D01*
X101838095Y-7601228D02*
X101790476Y-7696466D01*
X101790476Y-7696466D02*
X101790476Y-7886942D01*
X101790476Y-7886942D02*
X101838095Y-7982180D01*
X101838095Y-7982180D02*
X101885714Y-8029800D01*
X101885714Y-8029800D02*
X101980952Y-8077419D01*
X101980952Y-8077419D02*
X102171428Y-8077419D01*
X102171428Y-8077419D02*
X102266666Y-8029800D01*
X102266666Y-8029800D02*
X102314285Y-7982180D01*
X102314285Y-7982180D02*
X102361904Y-7886942D01*
X102361904Y-7886942D02*
X102361904Y-7696466D01*
X102361904Y-7696466D02*
X102314285Y-7601228D01*
X102314285Y-7601228D02*
X102266666Y-7553609D01*
X102266666Y-7553609D02*
X102171428Y-7505990D01*
X37290476Y-7077419D02*
X37957142Y-8077419D01*
X37957142Y-7077419D02*
X37290476Y-8077419D01*
X38766666Y-7077419D02*
X38576190Y-7077419D01*
X38576190Y-7077419D02*
X38480952Y-7125038D01*
X38480952Y-7125038D02*
X38433333Y-7172657D01*
X38433333Y-7172657D02*
X38338095Y-7315514D01*
X38338095Y-7315514D02*
X38290476Y-7505990D01*
X38290476Y-7505990D02*
X38290476Y-7886942D01*
X38290476Y-7886942D02*
X38338095Y-7982180D01*
X38338095Y-7982180D02*
X38385714Y-8029800D01*
X38385714Y-8029800D02*
X38480952Y-8077419D01*
X38480952Y-8077419D02*
X38671428Y-8077419D01*
X38671428Y-8077419D02*
X38766666Y-8029800D01*
X38766666Y-8029800D02*
X38814285Y-7982180D01*
X38814285Y-7982180D02*
X38861904Y-7886942D01*
X38861904Y-7886942D02*
X38861904Y-7648847D01*
X38861904Y-7648847D02*
X38814285Y-7553609D01*
X38814285Y-7553609D02*
X38766666Y-7505990D01*
X38766666Y-7505990D02*
X38671428Y-7458371D01*
X38671428Y-7458371D02*
X38480952Y-7458371D01*
X38480952Y-7458371D02*
X38385714Y-7505990D01*
X38385714Y-7505990D02*
X38338095Y-7553609D01*
X38338095Y-7553609D02*
X38290476Y-7648847D01*
X106489523Y-51942419D02*
X105918095Y-51942419D01*
X106203809Y-51942419D02*
X106203809Y-50942419D01*
X106203809Y-50942419D02*
X106108571Y-51085276D01*
X106108571Y-51085276D02*
X106013333Y-51180514D01*
X106013333Y-51180514D02*
X105918095Y-51228133D01*
X107394285Y-50942419D02*
X106918095Y-50942419D01*
X106918095Y-50942419D02*
X106870476Y-51418609D01*
X106870476Y-51418609D02*
X106918095Y-51370990D01*
X106918095Y-51370990D02*
X107013333Y-51323371D01*
X107013333Y-51323371D02*
X107251428Y-51323371D01*
X107251428Y-51323371D02*
X107346666Y-51370990D01*
X107346666Y-51370990D02*
X107394285Y-51418609D01*
X107394285Y-51418609D02*
X107441904Y-51513847D01*
X107441904Y-51513847D02*
X107441904Y-51751942D01*
X107441904Y-51751942D02*
X107394285Y-51847180D01*
X107394285Y-51847180D02*
X107346666Y-51894800D01*
X107346666Y-51894800D02*
X107251428Y-51942419D01*
X107251428Y-51942419D02*
X107013333Y-51942419D01*
X107013333Y-51942419D02*
X106918095Y-51894800D01*
X106918095Y-51894800D02*
X106870476Y-51847180D01*
X88138095Y-51037657D02*
X88185714Y-50990038D01*
X88185714Y-50990038D02*
X88280952Y-50942419D01*
X88280952Y-50942419D02*
X88519047Y-50942419D01*
X88519047Y-50942419D02*
X88614285Y-50990038D01*
X88614285Y-50990038D02*
X88661904Y-51037657D01*
X88661904Y-51037657D02*
X88709523Y-51132895D01*
X88709523Y-51132895D02*
X88709523Y-51228133D01*
X88709523Y-51228133D02*
X88661904Y-51370990D01*
X88661904Y-51370990D02*
X88090476Y-51942419D01*
X88090476Y-51942419D02*
X88709523Y-51942419D01*
X89185714Y-51942419D02*
X89376190Y-51942419D01*
X89376190Y-51942419D02*
X89471428Y-51894800D01*
X89471428Y-51894800D02*
X89519047Y-51847180D01*
X89519047Y-51847180D02*
X89614285Y-51704323D01*
X89614285Y-51704323D02*
X89661904Y-51513847D01*
X89661904Y-51513847D02*
X89661904Y-51132895D01*
X89661904Y-51132895D02*
X89614285Y-51037657D01*
X89614285Y-51037657D02*
X89566666Y-50990038D01*
X89566666Y-50990038D02*
X89471428Y-50942419D01*
X89471428Y-50942419D02*
X89280952Y-50942419D01*
X89280952Y-50942419D02*
X89185714Y-50990038D01*
X89185714Y-50990038D02*
X89138095Y-51037657D01*
X89138095Y-51037657D02*
X89090476Y-51132895D01*
X89090476Y-51132895D02*
X89090476Y-51370990D01*
X89090476Y-51370990D02*
X89138095Y-51466228D01*
X89138095Y-51466228D02*
X89185714Y-51513847D01*
X89185714Y-51513847D02*
X89280952Y-51561466D01*
X89280952Y-51561466D02*
X89471428Y-51561466D01*
X89471428Y-51561466D02*
X89566666Y-51513847D01*
X89566666Y-51513847D02*
X89614285Y-51466228D01*
X89614285Y-51466228D02*
X89661904Y-51370990D01*
X70834285Y-51275752D02*
X70834285Y-51942419D01*
X70596190Y-50894800D02*
X70358095Y-51609085D01*
X70358095Y-51609085D02*
X70977142Y-51609085D01*
X71262857Y-50942419D02*
X71881904Y-50942419D01*
X71881904Y-50942419D02*
X71548571Y-51323371D01*
X71548571Y-51323371D02*
X71691428Y-51323371D01*
X71691428Y-51323371D02*
X71786666Y-51370990D01*
X71786666Y-51370990D02*
X71834285Y-51418609D01*
X71834285Y-51418609D02*
X71881904Y-51513847D01*
X71881904Y-51513847D02*
X71881904Y-51751942D01*
X71881904Y-51751942D02*
X71834285Y-51847180D01*
X71834285Y-51847180D02*
X71786666Y-51894800D01*
X71786666Y-51894800D02*
X71691428Y-51942419D01*
X71691428Y-51942419D02*
X71405714Y-51942419D01*
X71405714Y-51942419D02*
X71310476Y-51894800D01*
X71310476Y-51894800D02*
X71262857Y-51847180D01*
X17208571Y-51370990D02*
X17113333Y-51323371D01*
X17113333Y-51323371D02*
X17065714Y-51275752D01*
X17065714Y-51275752D02*
X17018095Y-51180514D01*
X17018095Y-51180514D02*
X17018095Y-51132895D01*
X17018095Y-51132895D02*
X17065714Y-51037657D01*
X17065714Y-51037657D02*
X17113333Y-50990038D01*
X17113333Y-50990038D02*
X17208571Y-50942419D01*
X17208571Y-50942419D02*
X17399047Y-50942419D01*
X17399047Y-50942419D02*
X17494285Y-50990038D01*
X17494285Y-50990038D02*
X17541904Y-51037657D01*
X17541904Y-51037657D02*
X17589523Y-51132895D01*
X17589523Y-51132895D02*
X17589523Y-51180514D01*
X17589523Y-51180514D02*
X17541904Y-51275752D01*
X17541904Y-51275752D02*
X17494285Y-51323371D01*
X17494285Y-51323371D02*
X17399047Y-51370990D01*
X17399047Y-51370990D02*
X17208571Y-51370990D01*
X17208571Y-51370990D02*
X17113333Y-51418609D01*
X17113333Y-51418609D02*
X17065714Y-51466228D01*
X17065714Y-51466228D02*
X17018095Y-51561466D01*
X17018095Y-51561466D02*
X17018095Y-51751942D01*
X17018095Y-51751942D02*
X17065714Y-51847180D01*
X17065714Y-51847180D02*
X17113333Y-51894800D01*
X17113333Y-51894800D02*
X17208571Y-51942419D01*
X17208571Y-51942419D02*
X17399047Y-51942419D01*
X17399047Y-51942419D02*
X17494285Y-51894800D01*
X17494285Y-51894800D02*
X17541904Y-51847180D01*
X17541904Y-51847180D02*
X17589523Y-51751942D01*
X17589523Y-51751942D02*
X17589523Y-51561466D01*
X17589523Y-51561466D02*
X17541904Y-51466228D01*
X17541904Y-51466228D02*
X17494285Y-51418609D01*
X17494285Y-51418609D02*
X17399047Y-51370990D01*
X18494285Y-50942419D02*
X18018095Y-50942419D01*
X18018095Y-50942419D02*
X17970476Y-51418609D01*
X17970476Y-51418609D02*
X18018095Y-51370990D01*
X18018095Y-51370990D02*
X18113333Y-51323371D01*
X18113333Y-51323371D02*
X18351428Y-51323371D01*
X18351428Y-51323371D02*
X18446666Y-51370990D01*
X18446666Y-51370990D02*
X18494285Y-51418609D01*
X18494285Y-51418609D02*
X18541904Y-51513847D01*
X18541904Y-51513847D02*
X18541904Y-51751942D01*
X18541904Y-51751942D02*
X18494285Y-51847180D01*
X18494285Y-51847180D02*
X18446666Y-51894800D01*
X18446666Y-51894800D02*
X18351428Y-51942419D01*
X18351428Y-51942419D02*
X18113333Y-51942419D01*
X18113333Y-51942419D02*
X18018095Y-51894800D01*
X18018095Y-51894800D02*
X17970476Y-51847180D01*
D10*
X121057200Y-63968094D02*
X121104819Y-63825237D01*
X121104819Y-63825237D02*
X121104819Y-63587142D01*
X121104819Y-63587142D02*
X121057200Y-63491904D01*
X121057200Y-63491904D02*
X121009580Y-63444285D01*
X121009580Y-63444285D02*
X120914342Y-63396666D01*
X120914342Y-63396666D02*
X120819104Y-63396666D01*
X120819104Y-63396666D02*
X120723866Y-63444285D01*
X120723866Y-63444285D02*
X120676247Y-63491904D01*
X120676247Y-63491904D02*
X120628628Y-63587142D01*
X120628628Y-63587142D02*
X120581009Y-63777618D01*
X120581009Y-63777618D02*
X120533390Y-63872856D01*
X120533390Y-63872856D02*
X120485771Y-63920475D01*
X120485771Y-63920475D02*
X120390533Y-63968094D01*
X120390533Y-63968094D02*
X120295295Y-63968094D01*
X120295295Y-63968094D02*
X120200057Y-63920475D01*
X120200057Y-63920475D02*
X120152438Y-63872856D01*
X120152438Y-63872856D02*
X120104819Y-63777618D01*
X120104819Y-63777618D02*
X120104819Y-63539523D01*
X120104819Y-63539523D02*
X120152438Y-63396666D01*
X120581009Y-62968094D02*
X120581009Y-62634761D01*
X121104819Y-62491904D02*
X121104819Y-62968094D01*
X121104819Y-62968094D02*
X120104819Y-62968094D01*
X120104819Y-62968094D02*
X120104819Y-62491904D01*
X121104819Y-62063332D02*
X120104819Y-62063332D01*
X120104819Y-62063332D02*
X121104819Y-61491904D01*
X121104819Y-61491904D02*
X120104819Y-61491904D01*
X120200057Y-61063332D02*
X120152438Y-61015713D01*
X120152438Y-61015713D02*
X120104819Y-60920475D01*
X120104819Y-60920475D02*
X120104819Y-60682380D01*
X120104819Y-60682380D02*
X120152438Y-60587142D01*
X120152438Y-60587142D02*
X120200057Y-60539523D01*
X120200057Y-60539523D02*
X120295295Y-60491904D01*
X120295295Y-60491904D02*
X120390533Y-60491904D01*
X120390533Y-60491904D02*
X120533390Y-60539523D01*
X120533390Y-60539523D02*
X121104819Y-61110951D01*
X121104819Y-61110951D02*
X121104819Y-60491904D01*
X113437200Y-63968094D02*
X113484819Y-63825237D01*
X113484819Y-63825237D02*
X113484819Y-63587142D01*
X113484819Y-63587142D02*
X113437200Y-63491904D01*
X113437200Y-63491904D02*
X113389580Y-63444285D01*
X113389580Y-63444285D02*
X113294342Y-63396666D01*
X113294342Y-63396666D02*
X113199104Y-63396666D01*
X113199104Y-63396666D02*
X113103866Y-63444285D01*
X113103866Y-63444285D02*
X113056247Y-63491904D01*
X113056247Y-63491904D02*
X113008628Y-63587142D01*
X113008628Y-63587142D02*
X112961009Y-63777618D01*
X112961009Y-63777618D02*
X112913390Y-63872856D01*
X112913390Y-63872856D02*
X112865771Y-63920475D01*
X112865771Y-63920475D02*
X112770533Y-63968094D01*
X112770533Y-63968094D02*
X112675295Y-63968094D01*
X112675295Y-63968094D02*
X112580057Y-63920475D01*
X112580057Y-63920475D02*
X112532438Y-63872856D01*
X112532438Y-63872856D02*
X112484819Y-63777618D01*
X112484819Y-63777618D02*
X112484819Y-63539523D01*
X112484819Y-63539523D02*
X112532438Y-63396666D01*
X112961009Y-62968094D02*
X112961009Y-62634761D01*
X113484819Y-62491904D02*
X113484819Y-62968094D01*
X113484819Y-62968094D02*
X112484819Y-62968094D01*
X112484819Y-62968094D02*
X112484819Y-62491904D01*
X113484819Y-62063332D02*
X112484819Y-62063332D01*
X112484819Y-62063332D02*
X113484819Y-61491904D01*
X113484819Y-61491904D02*
X112484819Y-61491904D01*
X112818152Y-60587142D02*
X113484819Y-60587142D01*
X112437200Y-60825237D02*
X113151485Y-61063332D01*
X113151485Y-61063332D02*
X113151485Y-60444285D01*
X124867200Y-63968094D02*
X124914819Y-63825237D01*
X124914819Y-63825237D02*
X124914819Y-63587142D01*
X124914819Y-63587142D02*
X124867200Y-63491904D01*
X124867200Y-63491904D02*
X124819580Y-63444285D01*
X124819580Y-63444285D02*
X124724342Y-63396666D01*
X124724342Y-63396666D02*
X124629104Y-63396666D01*
X124629104Y-63396666D02*
X124533866Y-63444285D01*
X124533866Y-63444285D02*
X124486247Y-63491904D01*
X124486247Y-63491904D02*
X124438628Y-63587142D01*
X124438628Y-63587142D02*
X124391009Y-63777618D01*
X124391009Y-63777618D02*
X124343390Y-63872856D01*
X124343390Y-63872856D02*
X124295771Y-63920475D01*
X124295771Y-63920475D02*
X124200533Y-63968094D01*
X124200533Y-63968094D02*
X124105295Y-63968094D01*
X124105295Y-63968094D02*
X124010057Y-63920475D01*
X124010057Y-63920475D02*
X123962438Y-63872856D01*
X123962438Y-63872856D02*
X123914819Y-63777618D01*
X123914819Y-63777618D02*
X123914819Y-63539523D01*
X123914819Y-63539523D02*
X123962438Y-63396666D01*
X124391009Y-62968094D02*
X124391009Y-62634761D01*
X124914819Y-62491904D02*
X124914819Y-62968094D01*
X124914819Y-62968094D02*
X123914819Y-62968094D01*
X123914819Y-62968094D02*
X123914819Y-62491904D01*
X124914819Y-62063332D02*
X123914819Y-62063332D01*
X123914819Y-62063332D02*
X124914819Y-61491904D01*
X124914819Y-61491904D02*
X123914819Y-61491904D01*
X124914819Y-60491904D02*
X124914819Y-61063332D01*
X124914819Y-60777618D02*
X123914819Y-60777618D01*
X123914819Y-60777618D02*
X124057676Y-60872856D01*
X124057676Y-60872856D02*
X124152914Y-60968094D01*
X124152914Y-60968094D02*
X124200533Y-61063332D01*
X117247200Y-63968094D02*
X117294819Y-63825237D01*
X117294819Y-63825237D02*
X117294819Y-63587142D01*
X117294819Y-63587142D02*
X117247200Y-63491904D01*
X117247200Y-63491904D02*
X117199580Y-63444285D01*
X117199580Y-63444285D02*
X117104342Y-63396666D01*
X117104342Y-63396666D02*
X117009104Y-63396666D01*
X117009104Y-63396666D02*
X116913866Y-63444285D01*
X116913866Y-63444285D02*
X116866247Y-63491904D01*
X116866247Y-63491904D02*
X116818628Y-63587142D01*
X116818628Y-63587142D02*
X116771009Y-63777618D01*
X116771009Y-63777618D02*
X116723390Y-63872856D01*
X116723390Y-63872856D02*
X116675771Y-63920475D01*
X116675771Y-63920475D02*
X116580533Y-63968094D01*
X116580533Y-63968094D02*
X116485295Y-63968094D01*
X116485295Y-63968094D02*
X116390057Y-63920475D01*
X116390057Y-63920475D02*
X116342438Y-63872856D01*
X116342438Y-63872856D02*
X116294819Y-63777618D01*
X116294819Y-63777618D02*
X116294819Y-63539523D01*
X116294819Y-63539523D02*
X116342438Y-63396666D01*
X116771009Y-62968094D02*
X116771009Y-62634761D01*
X117294819Y-62491904D02*
X117294819Y-62968094D01*
X117294819Y-62968094D02*
X116294819Y-62968094D01*
X116294819Y-62968094D02*
X116294819Y-62491904D01*
X117294819Y-62063332D02*
X116294819Y-62063332D01*
X116294819Y-62063332D02*
X117294819Y-61491904D01*
X117294819Y-61491904D02*
X116294819Y-61491904D01*
X116294819Y-61110951D02*
X116294819Y-60491904D01*
X116294819Y-60491904D02*
X116675771Y-60825237D01*
X116675771Y-60825237D02*
X116675771Y-60682380D01*
X116675771Y-60682380D02*
X116723390Y-60587142D01*
X116723390Y-60587142D02*
X116771009Y-60539523D01*
X116771009Y-60539523D02*
X116866247Y-60491904D01*
X116866247Y-60491904D02*
X117104342Y-60491904D01*
X117104342Y-60491904D02*
X117199580Y-60539523D01*
X117199580Y-60539523D02*
X117247200Y-60587142D01*
X117247200Y-60587142D02*
X117294819Y-60682380D01*
X117294819Y-60682380D02*
X117294819Y-60968094D01*
X117294819Y-60968094D02*
X117247200Y-61063332D01*
X117247200Y-61063332D02*
X117199580Y-61110951D01*
X37949285Y-63431009D02*
X38092142Y-63478628D01*
X38092142Y-63478628D02*
X38139761Y-63526247D01*
X38139761Y-63526247D02*
X38187380Y-63621485D01*
X38187380Y-63621485D02*
X38187380Y-63764342D01*
X38187380Y-63764342D02*
X38139761Y-63859580D01*
X38139761Y-63859580D02*
X38092142Y-63907200D01*
X38092142Y-63907200D02*
X37996904Y-63954819D01*
X37996904Y-63954819D02*
X37615952Y-63954819D01*
X37615952Y-63954819D02*
X37615952Y-62954819D01*
X37615952Y-62954819D02*
X37949285Y-62954819D01*
X37949285Y-62954819D02*
X38044523Y-63002438D01*
X38044523Y-63002438D02*
X38092142Y-63050057D01*
X38092142Y-63050057D02*
X38139761Y-63145295D01*
X38139761Y-63145295D02*
X38139761Y-63240533D01*
X38139761Y-63240533D02*
X38092142Y-63335771D01*
X38092142Y-63335771D02*
X38044523Y-63383390D01*
X38044523Y-63383390D02*
X37949285Y-63431009D01*
X37949285Y-63431009D02*
X37615952Y-63431009D01*
X38473095Y-62954819D02*
X39044523Y-62954819D01*
X38758809Y-63954819D02*
X38758809Y-62954819D01*
X39901666Y-63954819D02*
X39330238Y-63954819D01*
X39615952Y-63954819D02*
X39615952Y-62954819D01*
X39615952Y-62954819D02*
X39520714Y-63097676D01*
X39520714Y-63097676D02*
X39425476Y-63192914D01*
X39425476Y-63192914D02*
X39330238Y-63240533D01*
X76112857Y-72844819D02*
X76112857Y-71844819D01*
X76922380Y-72321009D02*
X77065237Y-72368628D01*
X77065237Y-72368628D02*
X77112856Y-72416247D01*
X77112856Y-72416247D02*
X77160475Y-72511485D01*
X77160475Y-72511485D02*
X77160475Y-72654342D01*
X77160475Y-72654342D02*
X77112856Y-72749580D01*
X77112856Y-72749580D02*
X77065237Y-72797200D01*
X77065237Y-72797200D02*
X76969999Y-72844819D01*
X76969999Y-72844819D02*
X76589047Y-72844819D01*
X76589047Y-72844819D02*
X76589047Y-71844819D01*
X76589047Y-71844819D02*
X76922380Y-71844819D01*
X76922380Y-71844819D02*
X77017618Y-71892438D01*
X77017618Y-71892438D02*
X77065237Y-71940057D01*
X77065237Y-71940057D02*
X77112856Y-72035295D01*
X77112856Y-72035295D02*
X77112856Y-72130533D01*
X77112856Y-72130533D02*
X77065237Y-72225771D01*
X77065237Y-72225771D02*
X77017618Y-72273390D01*
X77017618Y-72273390D02*
X76922380Y-72321009D01*
X76922380Y-72321009D02*
X76589047Y-72321009D01*
X77446190Y-71844819D02*
X78017618Y-71844819D01*
X77731904Y-72844819D02*
X77731904Y-71844819D01*
X78874761Y-72844819D02*
X78303333Y-72844819D01*
X78589047Y-72844819D02*
X78589047Y-71844819D01*
X78589047Y-71844819D02*
X78493809Y-71987676D01*
X78493809Y-71987676D02*
X78398571Y-72082914D01*
X78398571Y-72082914D02*
X78303333Y-72130533D01*
X25312857Y-72844819D02*
X25312857Y-71844819D01*
X26122380Y-72321009D02*
X26265237Y-72368628D01*
X26265237Y-72368628D02*
X26312856Y-72416247D01*
X26312856Y-72416247D02*
X26360475Y-72511485D01*
X26360475Y-72511485D02*
X26360475Y-72654342D01*
X26360475Y-72654342D02*
X26312856Y-72749580D01*
X26312856Y-72749580D02*
X26265237Y-72797200D01*
X26265237Y-72797200D02*
X26169999Y-72844819D01*
X26169999Y-72844819D02*
X25789047Y-72844819D01*
X25789047Y-72844819D02*
X25789047Y-71844819D01*
X25789047Y-71844819D02*
X26122380Y-71844819D01*
X26122380Y-71844819D02*
X26217618Y-71892438D01*
X26217618Y-71892438D02*
X26265237Y-71940057D01*
X26265237Y-71940057D02*
X26312856Y-72035295D01*
X26312856Y-72035295D02*
X26312856Y-72130533D01*
X26312856Y-72130533D02*
X26265237Y-72225771D01*
X26265237Y-72225771D02*
X26217618Y-72273390D01*
X26217618Y-72273390D02*
X26122380Y-72321009D01*
X26122380Y-72321009D02*
X25789047Y-72321009D01*
X26646190Y-71844819D02*
X27217618Y-71844819D01*
X26931904Y-72844819D02*
X26931904Y-71844819D01*
X27503333Y-71940057D02*
X27550952Y-71892438D01*
X27550952Y-71892438D02*
X27646190Y-71844819D01*
X27646190Y-71844819D02*
X27884285Y-71844819D01*
X27884285Y-71844819D02*
X27979523Y-71892438D01*
X27979523Y-71892438D02*
X28027142Y-71940057D01*
X28027142Y-71940057D02*
X28074761Y-72035295D01*
X28074761Y-72035295D02*
X28074761Y-72130533D01*
X28074761Y-72130533D02*
X28027142Y-72273390D01*
X28027142Y-72273390D02*
X27455714Y-72844819D01*
X27455714Y-72844819D02*
X28074761Y-72844819D01*
D12*
%TO.C,J1*%
X7080000Y-59290000D02*
X3080000Y-59290000D01*
X8110000Y-59580000D02*
X2090000Y-59580000D01*
X2090000Y-59580000D02*
X2090000Y-64880000D01*
X8110000Y-60160000D02*
X7510000Y-60160000D01*
X7510000Y-60160000D02*
X7510000Y-61760000D01*
X3090000Y-60960000D02*
X3620000Y-61210000D01*
X3090000Y-60960000D02*
X3090000Y-63500000D01*
X2090000Y-60960000D02*
X3090000Y-60960000D01*
X3620000Y-61210000D02*
X3620000Y-63250000D01*
X2090000Y-61210000D02*
X3090000Y-61210000D01*
X7510000Y-61760000D02*
X8110000Y-61760000D01*
X8110000Y-62700000D02*
X7510000Y-62700000D01*
X7510000Y-62700000D02*
X7510000Y-64300000D01*
X3620000Y-63250000D02*
X3090000Y-63500000D01*
X2090000Y-63250000D02*
X3090000Y-63250000D01*
X3090000Y-63500000D02*
X2090000Y-63500000D01*
X7510000Y-64300000D02*
X8110000Y-64300000D01*
X8110000Y-64880000D02*
X8110000Y-59580000D01*
X2090000Y-64880000D02*
X8110000Y-64880000D01*
%TO.C,PS1*%
X83880000Y-58500000D02*
X83880000Y-64500000D01*
X56880000Y-60500000D02*
X56880000Y-58500000D01*
X56880000Y-58500000D02*
X83880000Y-58500000D01*
X53880000Y-64500000D02*
X83880000Y-64500000D01*
X53880000Y-60500000D02*
X56880000Y-60500000D01*
X53880000Y-60500000D02*
X53880000Y-64500000D01*
X53880000Y-59500000D02*
X53880000Y-58500000D01*
X53880000Y-58500000D02*
X54880000Y-58500000D01*
%TO.C,SERVO1*%
X108010000Y-69850000D02*
X108010000Y-74990000D01*
X105350000Y-74990000D02*
X108010000Y-74990000D01*
X105350000Y-69850000D02*
X108010000Y-69850000D01*
X105350000Y-69850000D02*
X105350000Y-74990000D01*
X105350000Y-68580000D02*
X105350000Y-67250000D01*
X105350000Y-67250000D02*
X106680000Y-67250000D01*
D11*
%TO.C,U1*%
X19050000Y-56515000D02*
X19050000Y-52705000D01*
X36830000Y-56515000D02*
X36830000Y-52705000D01*
X54610000Y-56515000D02*
X54610000Y-52705000D01*
X72390000Y-56515000D02*
X72390000Y-52705000D01*
X90170000Y-56515000D02*
X90170000Y-52705000D01*
X107950000Y-56515000D02*
X107950000Y-52705000D01*
X1270000Y-1270000D02*
X125730000Y-1270000D01*
X125730000Y-57150000D01*
X1270000Y-57150000D01*
X1270000Y-1270000D01*
X36830000Y-1270000D02*
X62230000Y-1270000D01*
X62230000Y-6350000D01*
X36830000Y-6350000D01*
X36830000Y-1270000D01*
X36830000Y-44450000D02*
X62230000Y-44450000D01*
X62230000Y-49530000D01*
X36830000Y-49530000D01*
X36830000Y-44450000D01*
X85090000Y-26670000D02*
X90170000Y-26670000D01*
X90170000Y-44450000D01*
X85090000Y-44450000D01*
X85090000Y-26670000D01*
X100330000Y-1270000D02*
X125730000Y-1270000D01*
X125730000Y-6350000D01*
X100330000Y-6350000D01*
X100330000Y-1270000D01*
X100330000Y-44450000D02*
X125730000Y-44450000D01*
X125730000Y-49530000D01*
X100330000Y-49530000D01*
X100330000Y-44450000D01*
X26035000Y-40640000D02*
G75*
G02*
X19685000Y-40640000I-3175000J0D01*
G01*
X19685000Y-40640000D02*
G75*
G02*
X26035000Y-40640000I3175000J0D01*
G01*
X86995000Y-5080000D02*
G75*
G02*
X80645000Y-5080000I-3175000J0D01*
G01*
X80645000Y-5080000D02*
G75*
G02*
X86995000Y-5080000I3175000J0D01*
G01*
X99695000Y-35560000D02*
G75*
G02*
X93345000Y-35560000I-3175000J0D01*
G01*
X93345000Y-35560000D02*
G75*
G02*
X99695000Y-35560000I3175000J0D01*
G01*
D12*
%TO.C,SEN2*%
X119320000Y-64710000D02*
X120650000Y-64710000D01*
X119320000Y-66040000D02*
X119320000Y-64710000D01*
X119320000Y-67310000D02*
X119320000Y-74990000D01*
X119320000Y-67310000D02*
X121980000Y-67310000D01*
X119320000Y-74990000D02*
X121980000Y-74990000D01*
X121980000Y-67310000D02*
X121980000Y-74990000D01*
%TO.C,SEN4*%
X111700000Y-64710000D02*
X113030000Y-64710000D01*
X111700000Y-66040000D02*
X111700000Y-64710000D01*
X111700000Y-67310000D02*
X111700000Y-74990000D01*
X111700000Y-67310000D02*
X114360000Y-67310000D01*
X111700000Y-74990000D02*
X114360000Y-74990000D01*
X114360000Y-67310000D02*
X114360000Y-74990000D01*
%TO.C,SEN1*%
X123130000Y-64710000D02*
X124460000Y-64710000D01*
X123130000Y-66040000D02*
X123130000Y-64710000D01*
X123130000Y-67310000D02*
X123130000Y-74990000D01*
X123130000Y-67310000D02*
X125790000Y-67310000D01*
X123130000Y-74990000D02*
X125790000Y-74990000D01*
X125790000Y-67310000D02*
X125790000Y-74990000D01*
%TO.C,SEN3*%
X115510000Y-64710000D02*
X116840000Y-64710000D01*
X115510000Y-66040000D02*
X115510000Y-64710000D01*
X115510000Y-67310000D02*
X115510000Y-74990000D01*
X115510000Y-67310000D02*
X118170000Y-67310000D01*
X115510000Y-74990000D02*
X118170000Y-74990000D01*
X118170000Y-67310000D02*
X118170000Y-74990000D01*
%TO.C,BT1*%
X34290000Y-64830000D02*
X24070000Y-64830000D01*
X24070000Y-62170000D02*
X24070000Y-64830000D01*
X34290000Y-62170000D02*
X34290000Y-64830000D01*
X34290000Y-62170000D02*
X24070000Y-62170000D01*
X35560000Y-62170000D02*
X36890000Y-62170000D01*
X36890000Y-62170000D02*
X36890000Y-63500000D01*
%TD*%
M02*
